<?xml version="1.0" standalone="no"?>
<!DOCTYPE svg PUBLIC "-//W3C//DTD SVG 20010904//EN"
 "http://www.w3.org/TR/2001/REC-SVG-20010904/DTD/svg10.dtd">
<svg version="1.0" xmlns="http://www.w3.org/2000/svg"
 width="96.000000pt" height="96.000000pt" viewBox="0 0 96.000000 96.000000"
 preserveAspectRatio="xMidYMid meet">
<metadata>
Created by potrace 1.14, written by Peter Selinger 2001-2017
</metadata>
<g transform="translate(0.000000,96.000000) scale(0.100000,-0.100000)"
fill="#000000" stroke="none">
<path d="M80 565 c0 -151 3 -275 6 -275 3 0 30 25 59 55 l55 55 220 0 220 0 0
220 0 220 -280 0 -280 0 0 -275z"/>
<path d="M720 480 l0 -160 -200 0 -200 0 0 -60 0 -60 221 0 220 0 60 -61 59
-60 0 280 0 281 -80 0 -80 0 0 -160z"/>
</g>
</svg>
